<svg width="18" height="18" viewBox="0 0 18 18" fill="none" xmlns="http://www.w3.org/2000/svg">
<g clip-path="url(#clip0_42_13)">
<path d="M10.1598 6.24375C10.1598 5.73125 9.71914 5.66875 9.30352 5.66875L8.08164 5.65937V7.825H8.59414V7.04062H9.15664C9.73164 7.04062 9.60977 7.3625 9.61914 7.825H10.1379V7.40312C10.1379 7.11562 10.091 6.93125 9.79414 6.82812C10.0254 6.73437 10.1629 6.49375 10.1598 6.24375ZM9.24102 6.59687H8.59414V6.11875H9.25039C9.40977 6.11875 9.58477 6.15 9.58477 6.35C9.58477 6.55625 9.41914 6.59687 9.24102 6.59687ZM8.71914 9.39375H7.07227L6.41602 10.1062L5.77539 9.39375H3.69727L3.69414 11.5594H5.73789L6.40352 10.8406L7.04102 11.5594H8.04727L8.05039 10.8312C8.64102 10.8312 9.59102 10.975 9.59102 10.1031C9.59102 9.5625 9.20664 9.39375 8.71914 9.39375ZM5.47539 11.1031H4.20664V10.6719H5.34102V10.2312H4.20664V9.84062H5.50977L6.06914 10.4719L5.47539 11.1031ZM7.53164 11.3594L6.74102 10.4812L7.53164 9.625V11.3594ZM8.71289 10.3906H8.05039V9.84062H8.72227C8.89727 9.84062 9.04102 9.9125 9.04102 10.1031C9.04102 10.3031 8.89727 10.3906 8.71289 10.3906ZM7.72539 6.11875V5.6625H5.99102V7.82812H7.72539V7.38125H6.50977V6.95H7.69102V6.50937H6.50977V6.11875H7.72539ZM11.9191 9.97812C11.9191 9.46562 11.4785 9.39375 11.0723 9.39375H9.84102L9.83789 11.5594H10.3566L10.3598 10.7687H10.9098C11.2535 10.7687 11.3723 10.8312 11.3723 11.2L11.3691 11.5594H11.8879L11.891 11.1281C11.891 10.85 11.8348 10.6562 11.5473 10.5531C11.7879 10.4562 11.916 10.2156 11.9191 9.97812ZM11.0066 10.3281H10.3598V9.84062H11.016C11.1754 9.84062 11.3504 9.87187 11.3504 10.0719C11.3504 10.2875 11.1816 10.3281 11.0066 10.3281ZM5.60664 7.82812V5.6625H4.74414L4.12852 7.13125L3.45039 5.6625H2.60352V7.71562L1.72539 5.6625H0.959766L0.0316406 7.82812H0.591016L0.791016 7.35H1.86914L2.06914 7.82812H3.12539V6.13437L3.87539 7.82812H4.33164L5.08164 6.13437V7.82812H5.60664ZM0.975391 6.9L1.32539 6.0375L1.68477 6.9H0.975391ZM15.8941 11.8656V11.725C15.5566 11.9 15.7723 11.8656 10.9973 11.8656C10.9973 11.0781 11.0004 11.1187 10.9973 11.0781C10.9441 11.075 10.8973 11.075 10.7035 11.075C10.7035 11.6344 10.7004 11.2875 10.7004 11.8656H9.46289C9.46289 11.4875 9.46602 11.3875 9.46602 10.9531C9.15352 11.1406 8.75352 11.1531 8.39414 11.1469C8.39414 11.6062 8.39102 11.4062 8.39102 11.8656H6.86289C6.70352 11.6875 6.77852 11.7687 6.38164 11.3219C6.28164 11.4312 5.98164 11.7562 5.87852 11.8656H3.31602V8.98125H5.91289C6.06914 9.15625 6.00039 9.07812 6.39727 9.51875C6.49727 9.40937 6.77852 9.1 6.88789 8.98125H8.70039C9.00664 8.98125 9.26289 9.04062 9.45977 9.15625V8.98125C11.1566 8.98125 11.4691 8.9375 11.8254 9.14062V8.98125H14.2691V9.14375C14.6254 8.92812 14.8816 8.98125 16.2973 8.98125V9.1375C16.6191 8.95312 16.816 8.975 17.9941 8.98125V3.5C17.9941 2.67187 17.3223 2 16.4941 2H1.49414C0.666016 2 -0.00585938 2.67187 -0.00585938 3.5V6.93125C0.287891 6.24687 0.609766 5.49375 0.716016 5.24687H1.95664C2.09102 5.5625 2.00664 5.3625 2.23789 5.90625V5.24687H3.67539C3.76602 5.44062 4.02227 5.99687 4.10977 6.18437C4.29102 5.75937 4.42539 5.4375 4.50352 5.24687H7.72227C7.72227 5.24375 8.08164 5.24687 8.08477 5.24687C9.45039 5.25312 9.75977 5.22187 10.0973 5.4125V5.24687H11.3441V5.5375C11.5816 5.34687 11.9035 5.24687 12.3035 5.24687H13.166C13.166 5.2625 13.2254 5.25625 13.2379 5.25625H14.2504C14.3816 5.5625 14.3316 5.44375 14.5254 5.9V5.25625H15.8785C16.0316 5.50625 15.8473 5.2 16.2285 5.83125V5.25625H17.4754V8.13125H16.1754C16.0066 7.85 16.1316 8.0625 15.7629 7.44687V8.13125H14.1129C13.9129 7.66875 14.1098 8.12187 13.9066 7.65312H13.3129C13.1816 7.96562 13.2441 7.81562 13.1129 8.13125H12.2754C11.891 8.13125 11.5785 8.0375 11.3473 7.85312V8.13125H9.26914C9.25977 7.69687 9.26602 7.35625 9.26602 7.35625C9.20977 7.34687 9.15977 7.35 8.95977 7.35V8.13437H4.72539V7.77812C4.64727 7.95312 4.64102 7.9625 4.56602 8.13437H3.64414C3.51914 7.85625 3.55352 7.93437 3.48477 7.77812V8.13437H1.83164C1.70039 7.81875 1.76289 7.96875 1.63164 7.65625H1.03164C0.900391 7.96875 0.962891 7.81875 0.831641 8.13437H0.000390625V14.5C0.000390625 15.3281 0.672266 16 1.50039 16H16.5035C17.3316 16 18.0035 15.3281 18.0035 14.5V11.675C17.6066 11.9344 16.9816 11.8656 15.8941 11.8656ZM17.0285 9.85H17.9691V9.39375H16.941C16.541 9.39375 16.1973 9.6 16.1973 10.0406C16.1973 11.0719 17.5316 10.4406 17.5316 10.8969C17.5316 11.0562 17.3973 11.0969 17.2691 11.0969H16.2691L16.266 11.5594H17.266C17.5285 11.5594 17.816 11.5031 17.9691 11.2812V10.475C17.641 10.0437 16.741 10.4344 16.741 10.0531C16.741 9.87187 16.8848 9.85 17.0285 9.85ZM15.2473 11.0937H14.241L14.2379 11.5562H15.2441C15.7066 11.5562 16.0629 11.3812 16.0629 10.8687C16.0629 9.83125 14.7223 10.5187 14.7223 10.0469C14.7223 9.87187 14.8754 9.84687 15.0098 9.84687H15.9598V9.39062H14.9223C14.5223 9.39062 14.1879 9.59687 14.1879 10.0375C14.1879 11.0687 15.5223 10.4281 15.5223 10.8937C15.5191 11.0625 15.3754 11.0937 15.2473 11.0937ZM13.9285 9.84062V9.39375H12.2035L12.2004 11.5594H13.9254L13.9285 11.1125L12.7223 11.1031V10.6719H13.9066V10.2312H12.7254V9.84062H13.9285ZM12.1691 6.4625C12.1598 6.46875 12.1254 6.53125 12.1254 6.7C12.1254 6.8875 12.1535 6.94062 12.1598 6.94687C12.166 6.95 12.1941 6.9625 12.266 6.9625L12.4941 6.43437C12.4598 6.43437 12.4285 6.43125 12.3973 6.43125C12.2223 6.43125 12.1785 6.45312 12.1691 6.4625ZM12.3004 5.65937C11.566 5.65937 11.2379 6.03437 11.2379 6.7625C11.2379 7.45625 11.5566 7.825 12.2691 7.825H12.8691L13.0691 7.34687H14.141L14.3473 7.825H15.4004V6.20312L16.3754 7.825H17.1129V5.66875H16.5848V7.17187L15.6754 5.66875H14.8848V7.7125L14.0129 5.66875H13.2379L12.5035 7.37187H12.2723C11.8566 7.37187 11.7691 7.11875 11.7691 6.75C11.7691 6.00625 12.2598 6.125 12.8035 6.13437V5.65937H12.3004ZM13.616 6.0375L13.966 6.9H13.2535L13.616 6.0375ZM10.4566 5.6625V7.82812H10.9848V5.6625H10.4566Z" fill="white"/>
</g>
<defs>
<clipPath id="clip0_42_13">
<rect width="18" height="18" fill="white"/>
</clipPath>
</defs>
</svg>
