<svg width="18" height="18" viewBox="0 0 18 18" fill="none" xmlns="http://www.w3.org/2000/svg">
<g clip-path="url(#clip0_42_9)">
<path d="M15.0906 13.8219C15.0906 14.0344 14.9469 14.1875 14.7406 14.1875C14.5281 14.1875 14.3906 14.025 14.3906 13.8219C14.3906 13.6187 14.5281 13.4562 14.7406 13.4562C14.9469 13.4562 15.0906 13.6187 15.0906 13.8219ZM5.37813 13.4562C5.15625 13.4562 5.02812 13.6187 5.02812 13.8219C5.02812 14.025 5.15625 14.1875 5.37813 14.1875C5.58125 14.1875 5.71875 14.0344 5.71875 13.8219C5.71562 13.6187 5.58125 13.4562 5.37813 13.4562ZM9.05 13.4469C8.88125 13.4469 8.77813 13.5562 8.75313 13.7187H9.35C9.32188 13.5406 9.2125 13.4469 9.05 13.4469ZM12.4187 13.4562C12.2062 13.4562 12.0781 13.6187 12.0781 13.8219C12.0781 14.025 12.2062 14.1875 12.4187 14.1875C12.6312 14.1875 12.7688 14.0344 12.7688 13.8219C12.7688 13.6187 12.6312 13.4562 12.4187 13.4562ZM15.7281 14.2719C15.7281 14.2812 15.7375 14.2875 15.7375 14.3062C15.7375 14.3156 15.7281 14.3219 15.7281 14.3406C15.7187 14.35 15.7187 14.3562 15.7125 14.3656C15.7031 14.375 15.6969 14.3812 15.6781 14.3812C15.6688 14.3906 15.6625 14.3906 15.6438 14.3906C15.6344 14.3906 15.6281 14.3906 15.6094 14.3812C15.6 14.3812 15.5938 14.3719 15.5844 14.3656C15.575 14.3562 15.5688 14.35 15.5688 14.3406C15.5594 14.325 15.5594 14.3156 15.5594 14.3062C15.5594 14.2906 15.5594 14.2812 15.5688 14.2719C15.5688 14.2562 15.5781 14.2469 15.5844 14.2375C15.5938 14.2281 15.6 14.2281 15.6094 14.2219C15.625 14.2125 15.6344 14.2125 15.6438 14.2125C15.6594 14.2125 15.6688 14.2125 15.6781 14.2219C15.6938 14.2312 15.7031 14.2312 15.7125 14.2375C15.7219 14.2437 15.7187 14.2562 15.7281 14.2719ZM15.6594 14.3156C15.675 14.3156 15.675 14.3062 15.6844 14.3062C15.6937 14.2969 15.6938 14.2906 15.6938 14.2812C15.6938 14.2719 15.6937 14.2656 15.6844 14.2562C15.675 14.2562 15.6687 14.2469 15.65 14.2469H15.6V14.3562H15.625V14.3125H15.6344L15.6687 14.3562H15.6938L15.6594 14.3156ZM18 3.53125V14.5312C18 15.3594 17.3281 16.0312 16.5 16.0312H1.5C0.671875 16.0312 0 15.3594 0 14.5312V3.53125C0 2.70312 0.671875 2.03125 1.5 2.03125H16.5C17.3281 2.03125 18 2.70312 18 3.53125ZM2 7.89375C2 10.2844 3.94062 12.2219 6.32812 12.2219C7.17813 12.2219 8.0125 11.9656 8.71875 11.5C6.44062 9.64687 6.45625 6.15 8.71875 4.29687C8.0125 3.82812 7.17813 3.575 6.32812 3.575C3.94062 3.57187 2 5.5125 2 7.89375ZM9 11.2937C11.2031 9.575 11.1937 6.225 9 4.49687C6.80625 6.225 6.79688 9.57812 9 11.2937ZM4.55312 13.6781C4.55312 13.4062 4.375 13.2281 4.09375 13.2187C3.95 13.2187 3.79687 13.2625 3.69375 13.4219C3.61875 13.2937 3.49062 13.2187 3.3125 13.2187C3.19375 13.2187 3.075 13.2625 2.98125 13.3875V13.25H2.725V14.3969H2.98125C2.98125 13.8062 2.90313 13.4531 3.2625 13.4531C3.58125 13.4531 3.51875 13.7719 3.51875 14.3969H3.76562C3.76562 13.825 3.6875 13.4531 4.04688 13.4531C4.36562 13.4531 4.30312 13.7656 4.30312 14.3969H4.55937V13.6781H4.55312ZM5.95625 13.25H5.70937V13.3875C5.625 13.2844 5.50625 13.2187 5.34375 13.2187C5.02187 13.2187 4.775 13.475 4.775 13.8219C4.775 14.1719 5.02187 14.425 5.34375 14.425C5.50625 14.425 5.625 14.3656 5.70937 14.2562V14.4H5.95625V13.25ZM7.22188 14.05C7.22188 13.5812 6.50625 13.7937 6.50625 13.575C6.50625 13.3969 6.87812 13.425 7.08437 13.5406L7.1875 13.3375C6.89375 13.1469 6.24375 13.15 6.24375 13.5937C6.24375 14.0406 6.95937 13.8531 6.95937 14.0625C6.95937 14.2594 6.5375 14.2437 6.3125 14.0875L6.20312 14.2844C6.55312 14.5219 7.22188 14.4719 7.22188 14.05ZM8.32812 14.3406L8.25937 14.1281C8.14062 14.1937 7.87813 14.2656 7.87813 14V13.4812H8.2875V13.25H7.87813V12.9H7.62187V13.25H7.38438V13.4781H7.62187V14C7.62187 14.55 8.1625 14.45 8.32812 14.3406ZM8.74375 13.9219H9.60312C9.60312 13.4156 9.37187 13.2156 9.05937 13.2156C8.72812 13.2156 8.49063 13.4625 8.49063 13.8187C8.49063 14.4594 9.19688 14.5656 9.54688 14.2625L9.42813 14.075C9.18438 14.275 8.81562 14.2562 8.74375 13.9219ZM10.5906 13.25C10.4469 13.1875 10.2281 13.1937 10.1156 13.3875V13.25H9.85938V14.3969H10.1156V13.75C10.1156 13.3875 10.4125 13.4344 10.5156 13.4875L10.5906 13.25ZM10.9219 13.8219C10.9219 13.4656 11.2844 13.35 11.5688 13.5594L11.6875 13.3562C11.325 13.0719 10.6656 13.2281 10.6656 13.825C10.6656 14.4437 11.3656 14.5687 11.6875 14.2937L11.5688 14.0906C11.2813 14.2937 10.9219 14.1719 10.9219 13.8219ZM13.0063 13.25H12.75V13.3875C12.4906 13.0437 11.8156 13.2375 11.8156 13.8219C11.8156 14.4219 12.5156 14.5937 12.75 14.2562V14.4H13.0063V13.25ZM14.0594 13.25C13.9844 13.2125 13.7156 13.1594 13.5844 13.3875V13.25H13.3375V14.3969H13.5844V13.75C13.5844 13.4062 13.8656 13.4281 13.9844 13.4875L14.0594 13.25ZM15.3188 12.7844H15.0719V13.3875C14.8156 13.0469 14.1375 13.2281 14.1375 13.8219C14.1375 14.4281 14.8406 14.5906 15.0719 14.2562V14.4H15.3188V12.7844ZM15.5562 10.4375V10.5812H15.5813V10.4375H15.6406V10.4125H15.4969V10.4375H15.5562ZM15.7625 14.3062C15.7625 14.2906 15.7625 14.2719 15.7531 14.2562C15.7438 14.2469 15.7375 14.2312 15.7281 14.2219C15.7187 14.2125 15.7031 14.2062 15.6938 14.1969C15.6781 14.1969 15.6594 14.1875 15.6438 14.1875C15.6344 14.1875 15.6188 14.1969 15.6 14.1969C15.5844 14.2062 15.575 14.2125 15.5656 14.2219C15.55 14.2312 15.5406 14.2469 15.5406 14.2562C15.5312 14.2719 15.5312 14.2906 15.5312 14.3062C15.5312 14.3156 15.5312 14.3312 15.5406 14.35C15.5406 14.3594 15.55 14.375 15.5656 14.3844C15.575 14.3937 15.5813 14.4 15.6 14.4094C15.6156 14.4187 15.6344 14.4187 15.6438 14.4187C15.6594 14.4187 15.6781 14.4187 15.6938 14.4094C15.7031 14.4 15.7187 14.3937 15.7281 14.3844C15.7375 14.375 15.7438 14.3594 15.7531 14.35C15.7625 14.3312 15.7625 14.3156 15.7625 14.3062ZM15.8625 10.4094H15.8188L15.7688 10.5187L15.7188 10.4094H15.675V10.5781H15.7V10.45L15.75 10.5594H15.7844L15.8281 10.45V10.5781H15.8625V10.4094ZM16 7.89375C16 5.5125 14.0594 3.57188 11.6719 3.57188C10.8219 3.57188 9.9875 3.82812 9.28125 4.29375C11.5344 6.14687 11.5687 9.65312 9.28125 11.4969C9.9875 11.9656 10.8281 12.2187 11.6719 12.2187C14.0594 12.2219 16 10.2844 16 7.89375Z" fill="white"/>
</g>
<defs>
<clipPath id="clip0_42_9">
<rect width="18" height="18" fill="white"/>
</clipPath>
</defs>
</svg>
