<svg width="18" height="18" viewBox="0 0 18 18" fill="none" xmlns="http://www.w3.org/2000/svg">
<path fill-rule="evenodd" clip-rule="evenodd" d="M5.22675 1.85175C5.279 1.79936 5.34107 1.7578 5.40941 1.72945C5.47775 1.70109 5.55101 1.68649 5.625 1.68649C5.69899 1.68649 5.77225 1.70109 5.84059 1.72945C5.90892 1.7578 5.971 1.79936 6.02325 1.85175L12.7732 8.60175C12.8256 8.654 12.8672 8.71607 12.8955 8.78441C12.9239 8.85275 12.9385 8.92601 12.9385 9C12.9385 9.07399 12.9239 9.14725 12.8955 9.21559C12.8672 9.28392 12.8256 9.346 12.7732 9.39825L6.02325 16.1482C5.91763 16.2539 5.77437 16.3132 5.625 16.3132C5.47563 16.3132 5.33237 16.2539 5.22675 16.1482C5.12113 16.0426 5.06179 15.8994 5.06179 15.75C5.06179 15.6006 5.12113 15.4574 5.22675 15.3517L11.5796 9L5.22675 2.64825C5.17436 2.596 5.1328 2.53392 5.10445 2.46559C5.07609 2.39725 5.06149 2.32399 5.06149 2.25C5.06149 2.17601 5.07609 2.10275 5.10445 2.03441C5.1328 1.96607 5.17436 1.904 5.22675 1.85175Z" fill="#298EC6"/>
</svg>
