<svg width="19" height="19" viewBox="0 0 19 19" fill="none" xmlns="http://www.w3.org/2000/svg">
<g clip-path="url(#clip0_42_15)">
<path d="M5.97813 9.3373C5.97813 9.71855 5.675 10.0092 5.29063 10.0092C5.00313 10.0092 4.79063 9.84668 4.79063 9.54043C4.79063 9.15918 5.0875 8.85293 5.46875 8.85293C5.75938 8.85293 5.97813 9.03105 5.97813 9.3373ZM2.67188 7.82168H2.525C2.47813 7.82168 2.43125 7.85293 2.425 7.90605L2.29063 8.74043L2.54688 8.73105C2.89062 8.73105 3.15625 8.68418 3.21875 8.2873C3.29062 7.86855 3.025 7.82168 2.67188 7.82168ZM11.5469 7.82168H11.4062C11.35 7.82168 11.3125 7.85293 11.3062 7.90605L11.175 8.74043L11.425 8.73105C11.8313 8.73105 12.1125 8.6373 12.1125 8.16855C12.1094 7.8373 11.8125 7.82168 11.5469 7.82168ZM18.1562 3.76855V14.7686C18.1562 15.5967 17.4844 16.2686 16.6562 16.2686H1.65625C0.828125 16.2686 0.15625 15.5967 0.15625 14.7686V3.76855C0.15625 2.94043 0.828125 2.26855 1.65625 2.26855H16.6562C17.4844 2.26855 18.1562 2.94043 18.1562 3.76855ZM4.16563 7.9998C4.16563 7.34355 3.65937 7.1248 3.08125 7.1248H1.83125C1.75312 7.1248 1.675 7.1873 1.66875 7.27168L1.15625 10.4623C1.14687 10.5248 1.19375 10.5873 1.25625 10.5873H1.85C1.93438 10.5873 2.0125 10.4967 2.02188 10.4092L2.1625 9.57793C2.19375 9.35293 2.575 9.43105 2.725 9.43105C3.61875 9.43105 4.16563 8.8998 4.16563 7.9998ZM6.79688 8.2748H6.20312C6.08438 8.2748 6.07813 8.44668 6.07188 8.53105C5.89063 8.26543 5.62813 8.21855 5.33125 8.21855C4.56563 8.21855 3.98125 8.89043 3.98125 9.63105C3.98125 10.2404 4.3625 10.6373 4.97188 10.6373C5.25313 10.6373 5.60313 10.4842 5.8 10.2654C5.78438 10.3123 5.76875 10.4123 5.76875 10.4592C5.76875 10.5311 5.8 10.5842 5.86875 10.5842H6.40625C6.49063 10.5842 6.5625 10.4936 6.57812 10.4061L6.89687 8.39668C6.90625 8.3373 6.85938 8.2748 6.79688 8.2748ZM8.0625 11.3342L10.0531 8.44043C10.0688 8.4248 10.0688 8.40918 10.0688 8.3873C10.0688 8.33418 10.0219 8.27793 9.96875 8.27793H9.36875C9.31562 8.27793 9.25937 8.30918 9.22812 8.35605L8.4 9.5748L8.05625 8.40293C8.03125 8.33418 7.9625 8.27793 7.88438 8.27793H7.3C7.24688 8.27793 7.2 8.33418 7.2 8.3873C7.2 8.4248 7.80938 10.1623 7.8625 10.3279C7.77813 10.4467 7.22188 11.2217 7.22188 11.3154C7.22188 11.3717 7.26875 11.4154 7.32188 11.4154H7.92188C7.97812 11.4123 8.03125 11.3811 8.0625 11.3342ZM13.0406 7.9998C13.0406 7.34355 12.5344 7.1248 11.9563 7.1248H10.7156C10.6312 7.1248 10.5531 7.1873 10.5437 7.27168L10.0375 10.4592C10.0313 10.5217 10.0781 10.5842 10.1375 10.5842H10.7781C10.8406 10.5842 10.8875 10.5373 10.9031 10.4842L11.0437 9.57793C11.075 9.35293 11.4562 9.43105 11.6062 9.43105C12.4937 9.43105 13.0406 8.8998 13.0406 7.9998ZM15.6719 8.2748H15.0781C14.9594 8.2748 14.9531 8.44668 14.9438 8.53105C14.7719 8.26543 14.5062 8.21855 14.2031 8.21855C13.4375 8.21855 12.8531 8.89043 12.8531 9.63105C12.8531 10.2404 13.2344 10.6373 13.8438 10.6373C14.1344 10.6373 14.4844 10.4842 14.6719 10.2654C14.6625 10.3123 14.6406 10.4123 14.6406 10.4592C14.6406 10.5311 14.6719 10.5842 14.7406 10.5842H15.2812C15.3656 10.5842 15.4375 10.4936 15.4531 10.4061L15.7719 8.39668C15.7813 8.3373 15.7344 8.2748 15.6719 8.2748ZM17.1562 7.23418C17.1562 7.17168 17.1094 7.1248 17.0562 7.1248H16.4781C16.4312 7.1248 16.3844 7.1623 16.3781 7.20918L15.8719 10.4592L15.8625 10.4748C15.8625 10.5311 15.9094 10.5842 15.9719 10.5842H16.4875C16.5656 10.5842 16.6437 10.4936 16.65 10.4061L17.1562 7.24355V7.23418ZM14.3438 8.85293C13.9625 8.85293 13.6656 9.15605 13.6656 9.54043C13.6656 9.84355 13.8844 10.0092 14.1719 10.0092C14.5469 10.0092 14.85 9.72168 14.85 9.3373C14.8531 9.03105 14.6344 8.85293 14.3438 8.85293Z" fill="white"/>
</g>
<defs>
<clipPath id="clip0_42_15">
<rect width="18" height="18" fill="white" transform="translate(0.15625 0.268555)"/>
</clipPath>
</defs>
</svg>
