<svg width="16" height="18" viewBox="0 0 16 18" fill="none" xmlns="http://www.w3.org/2000/svg">
<path d="M1.14286 16.3125C1.14286 16.7601 1.32347 17.1893 1.64496 17.5057C1.96645 17.8222 2.40249 18 2.85714 18H13.1429C13.5975 18 14.0336 17.8222 14.355 17.5057C14.6765 17.1893 14.8571 16.7601 14.8571 16.3125V4.5H1.14286V16.3125ZM10.8571 7.3125C10.8571 7.16332 10.9173 7.02025 11.0245 6.91476C11.1317 6.80927 11.277 6.75 11.4286 6.75C11.5801 6.75 11.7255 6.80927 11.8326 6.91476C11.9398 7.02025 12 7.16332 12 7.3125V15.1875C12 15.3367 11.9398 15.4798 11.8326 15.5852C11.7255 15.6907 11.5801 15.75 11.4286 15.75C11.277 15.75 11.1317 15.6907 11.0245 15.5852C10.9173 15.4798 10.8571 15.3367 10.8571 15.1875V7.3125ZM7.42857 7.3125C7.42857 7.16332 7.48878 7.02025 7.59594 6.91476C7.7031 6.80927 7.84845 6.75 8 6.75C8.15155 6.75 8.2969 6.80927 8.40406 6.91476C8.51122 7.02025 8.57143 7.16332 8.57143 7.3125V15.1875C8.57143 15.3367 8.51122 15.4798 8.40406 15.5852C8.2969 15.6907 8.15155 15.75 8 15.75C7.84845 15.75 7.7031 15.6907 7.59594 15.5852C7.48878 15.4798 7.42857 15.3367 7.42857 15.1875V7.3125ZM4 7.3125C4 7.16332 4.0602 7.02025 4.16737 6.91476C4.27453 6.80927 4.41988 6.75 4.57143 6.75C4.72298 6.75 4.86833 6.80927 4.97549 6.91476C5.08265 7.02025 5.14286 7.16332 5.14286 7.3125V15.1875C5.14286 15.3367 5.08265 15.4798 4.97549 15.5852C4.86833 15.6907 4.72298 15.75 4.57143 15.75C4.41988 15.75 4.27453 15.6907 4.16737 15.5852C4.0602 15.4798 4 15.3367 4 15.1875V7.3125ZM15.4286 1.12501H11.1429L10.8071 0.467584C10.736 0.327034 10.6265 0.208807 10.4908 0.126202C10.3552 0.0435979 10.1988 -0.000106452 10.0393 6.16384e-06H5.95714C5.79799 -0.000596081 5.64189 0.0429453 5.50672 0.125642C5.37154 0.208338 5.26277 0.326845 5.19286 0.467584L4.85714 1.12501H0.571429C0.419876 1.12501 0.274531 1.18427 0.167368 1.28976C0.0602039 1.39525 0 1.53832 0 1.68751L0 2.81251C0 2.96169 0.0602039 3.10476 0.167368 3.21025C0.274531 3.31574 0.419876 3.37501 0.571429 3.37501H15.4286C15.5801 3.37501 15.7255 3.31574 15.8326 3.21025C15.9398 3.10476 16 2.96169 16 2.81251V1.68751C16 1.53832 15.9398 1.39525 15.8326 1.28976C15.7255 1.18427 15.5801 1.12501 15.4286 1.12501Z" fill="#CECECE" fill-opacity="0.63"/>
</svg>
