<svg width="18" height="18" viewBox="0 0 18 18" fill="none" xmlns="http://www.w3.org/2000/svg">
<g clip-path="url(#clip0_42_11)">
<path d="M14.6906 8.22812C14.6906 8.22812 14.9281 9.39062 14.9812 9.63437H13.9375C14.0406 9.35625 14.4375 8.275 14.4375 8.275C14.4312 8.28437 14.5406 7.99062 14.6031 7.80937L14.6906 8.22812ZM18 3.5V14.5C18 15.3281 17.3281 16 16.5 16H1.5C0.671875 16 0 15.3281 0 14.5V3.5C0 2.67187 0.671875 2 1.5 2H16.5C17.3281 2 18 2.67187 18 3.5ZM4.76562 11.35L6.74062 6.5H5.4125L4.18437 9.8125L4.05 9.14062L3.6125 6.90937C3.54062 6.6 3.31875 6.5125 3.04375 6.5H1.02188L1 6.59687C1.49375 6.72187 1.93437 6.90312 2.31875 7.13125L3.4375 11.35H4.76562ZM7.71562 11.3562L8.50313 6.5H7.24687L6.4625 11.3562H7.71562ZM12.0875 9.76875C12.0937 9.21562 11.7563 8.79375 11.0344 8.44687C10.5938 8.225 10.325 8.075 10.325 7.84687C10.3312 7.64062 10.5531 7.42812 11.0469 7.42812C11.4563 7.41875 11.7562 7.51562 11.9812 7.6125L12.0938 7.66562L12.2656 6.61562C12.0187 6.51875 11.625 6.40937 11.1406 6.40937C9.9 6.40937 9.02813 7.07187 9.02188 8.01562C9.0125 8.7125 9.64687 9.1 10.1219 9.33437C10.6062 9.57187 10.7719 9.72812 10.7719 9.9375C10.7656 10.2625 10.3781 10.4125 10.0188 10.4125C9.51875 10.4125 9.25 10.3344 8.84062 10.1531L8.675 10.075L8.5 11.1656C8.79375 11.3 9.3375 11.4187 9.9 11.425C11.2187 11.4281 12.0781 10.775 12.0875 9.76875ZM16.5 11.3562L15.4875 6.5H14.5156C14.2156 6.5 13.9875 6.5875 13.8594 6.90312L11.9937 11.3562H13.3125C13.3125 11.3562 13.5281 10.7562 13.575 10.6281H15.1875C15.225 10.8 15.3375 11.3562 15.3375 11.3562H16.5Z" fill="white"/>
</g>
<defs>
<clipPath id="clip0_42_11">
<rect width="18" height="18" fill="white"/>
</clipPath>
</defs>
</svg>
